<svg id="Layer_1" height="512" viewBox="0 0 128 128" width="512" xmlns="http://www.w3.org/2000/svg" data-name="Layer 1"><path d="m76.5 57.25h-5.75v-5.75a1.75 1.75 0 0 0 -1.75-1.75h-10a1.75 1.75 0 0 0 -1.75 1.75v5.75h-5.75a1.75 1.75 0 0 0 -1.75 1.75v10a1.75 1.75 0 0 0 1.75 1.75h5.75v5.75a1.75 1.75 0 0 0 1.75 1.75h10a1.75 1.75 0 0 0 1.75-1.75v-5.75h5.75a1.75 1.75 0 0 0 1.75-1.75v-10a1.75 1.75 0 0 0 -1.75-1.75zm-1.75 10h-5.75a1.75 1.75 0 0 0 -1.75 1.75v5.75h-6.5v-5.75a1.75 1.75 0 0 0 -1.75-1.75h-5.75v-6.5h5.75a1.75 1.75 0 0 0 1.75-1.75v-5.75h6.5v5.75a1.75 1.75 0 0 0 1.75 1.75h5.75z"/><path d="m108.75 49.5h-3.193v-5.4a1.751 1.751 0 0 0 -1.314-1.7c-.91-.233-22.476-5.721-40.243-5.721s-39.333 5.488-40.243 5.721a1.751 1.751 0 0 0 -1.314 1.7v5.4h-3.193a14.5 14.5 0 0 0 0 29h3.193v5.4a1.751 1.751 0 0 0 1.314 1.7c.91.233 22.476 5.721 40.243 5.721s39.333-5.487 40.243-5.721a1.751 1.751 0 0 0 1.314-1.7v-5.4h3.193a14.5 14.5 0 0 0 0-29zm-89.5 25.5a11 11 0 0 1 0-22h3.193v22zm6.693 1.75v-31.281c.632-.151 1.477-.349 2.5-.579v38.221c-1.023-.23-1.868-.428-2.5-.579zm6 7.12v-39.74c7.924-1.654 20.924-3.95 32.057-3.95s24.133 2.3 32.057 3.951v39.739c-7.924 1.654-20.924 3.95-32.057 3.95s-24.133-2.296-32.057-3.95zm70.114-1.338c-.632.151-1.477.349-2.5.579v-38.222c1.023.23 1.868.428 2.5.579v37.063zm6.693-7.532h-3.193v-22h3.193a11 11 0 0 1 0 22z"/></svg>